<svg xmlns="http://www.w3.org/2000/svg" viewBox="0 0 80 80">
  <defs>
    <style>
      .cls-1 {
        fill: none;
      }

      .cls-2 {
        fill: #223a70;
      }
    </style>
  </defs>
  <g id="icon-counseling" transform="translate(2.162 4)">
    <rect id="長方形_14" data-name="長方形 14" class="cls-1" width="80" height="80" transform="translate(-2.162 -4)"/>
    <path id="パス_11" data-name="パス 11" class="cls-2" d="M76.719,48.2A37.426,37.426,0,0,0,59.519,21a38.4,38.4,0,0,1-2.8,3,34.017,34.017,0,0,1,16,24.8,3.768,3.768,0,0,1-.4,1.6,2.271,2.271,0,0,1-1.6.6H7.119a2.271,2.271,0,0,1-1.6-.6,1.555,1.555,0,0,1-.4-1.6,34.017,34.017,0,0,1,16-24.8,38.4,38.4,0,0,1-2.8-3,37.807,37.807,0,0,0-17.2,27.2,6.139,6.139,0,0,0,1.6,4.8,6.423,6.423,0,0,0,4.4,2h63.6a5.731,5.731,0,0,0,4.4-2A6.139,6.139,0,0,0,76.719,48.2Z" transform="translate(-1.081 17)"/>
    <path id="パス_12" data-name="パス 12" class="cls-2" d="M31,6A18,18,0,1,1,13,24,17.925,17.925,0,0,1,31,6m0-4A22,22,0,1,0,53,24,21.937,21.937,0,0,0,31,2Z" transform="translate(6.838 -2)"/>
  </g>
</svg>
